<svg xmlns="http://www.w3.org/2000/svg" style="display: none;">
  
    <symbol id="social-linkedin" viewBox="0 0 512 512">
      <path d="m104 404l66 0 0-198-66 0z m71-259c-1-10-4-19-11-25-6-6-15-10-26-10-11 0-20 4-27 10-7 6-11 15-11 25 0 9 4 17 10 24 7 7 16 10 27 10l0 0c11 0 20-3 27-10 7-7 11-15 11-24z m167 259l66 0 0-114c0-29-7-51-21-66-14-15-32-23-55-23-26 0-46 11-60 34l1 0 0-29-66 0c0 12 0 78 0 198l66 0 0-111c0-7 0-12 2-16 2-7 7-12 12-17 6-5 13-7 22-7 22 0 33 15 33 45z m133-285l0 274c0 23-8 42-24 58-16 16-35 24-58 24l-274 0c-23 0-42-8-58-24-16-16-24-35-24-58l0-274c0-23 8-42 24-58 16-16 35-24 58-24l274 0c23 0 42 8 58 24 16 16 24 35 24 58z"/>
    </symbol>
  
    <symbol id="social-github" viewBox="0 0 512 512">
      <path d="m149 386c-1 2-3 2-6-1-2-2-2-3-1-5 2-2 4-1 6 1 2 2 3 4 1 5z m-12-17c2 2 2 4 0 5-1 1-3 1-5-2-1-2-1-4 0-5 2-1 4-1 5 2z m-17-17c-1 1-2 1-4 0-2-1-3-2-2-3 1-1 2-1 4-1 2 1 2 2 2 4z m9 9c-2 2-3 1-5 0-2-3-2-4-1-5 2-1 3-1 5 1 2 2 2 3 1 4z m36 32c0 3-2 3-5 2-3-1-4-2-4-4 1-2 3-3 6-2 3 1 4 2 3 4z m18 2c0 2-1 3-4 3-3 0-5-1-5-3 0-2 2-3 5-3 3-1 4 0 4 3z m17-3c0 2-1 3-4 4-3 1-5 0-5-2-1-3 1-4 4-5 3 0 5 1 5 3z m275-273l0 274c0 23-8 42-24 58-16 16-35 24-58 24l-64 0c-3 0-5 0-7 0-1 0-3-1-5-1-3-1-4-2-5-4-1-2-1-5-1-8l0-69c0-18-5-32-15-40 11-1 20-3 29-5 9-3 18-6 27-11 9-6 17-12 23-19 6-8 11-18 15-30 4-13 6-27 6-43 0-23-8-43-23-59 7-18 7-37-2-59-5-1-13 0-23 4-10 3-19 8-26 12l-11 7c-18-5-36-7-55-7-19 0-37 2-55 7-3-2-7-5-12-8-5-3-13-6-24-11-11-4-19-5-24-4-9 22-9 41-2 59-15 16-23 36-23 59 0 16 2 30 6 42 4 13 9 23 15 30 6 8 14 14 23 20 9 5 18 8 27 11 8 2 18 4 29 5-8 7-12 17-14 29-4 2-8 4-13 5-4 1-10 1-16 1-6 0-13-2-19-6-6-4-11-10-16-18-3-6-8-11-14-15-5-4-10-6-14-7l-5-1c-4 0-7 1-9 2-1 1-2 2-1 3 0 1 1 3 2 4 2 1 3 2 4 3l2 2c4 2 8 5 13 11 4 5 7 10 9 14l2 7c3 7 7 13 13 17 6 5 12 8 19 9 7 1 14 2 20 2 6 0 12 0 16-1l6-1c0 7 0 17 1 29 0 13 0 19 0 20 0 4-1 7-3 9-3 2-5 4-7 4-2 0-5 0-9 0l-64 0c-23 0-42-8-58-24-16-16-24-35-24-58l0-274c0-23 8-42 24-58 16-16 35-24 58-24l274 0c23 0 42 8 58 24 16 16 24 35 24 58z"/>
    </symbol>
  
    <symbol id="social-medium" viewBox="0 0 512 512">
      <path d="m418 72l-326 0c-10 4-17 12-20 22l0 321c4 15 18 25 34 25l298 0c20 0 36-16 36-36l0-299c0-15-9-28-22-33z m-71 135l-7 0c-2 0-5 3-5 6l0 89c0 2 3 6 5 6l7 0l0 21l-64 0l0-21l13 0l0-94l-1 0l-31 115l-25 0l-31-115l-1 0l0 94l14 0l0 21l-55 0l0-21l7 0c3 0 6-4 6-6l0-89c0-3-3-6-6-6l-7 0l0-22l68 0l23 84l0 0l23-84l67 0z"/>
    </symbol>
  
    <symbol id="social-medium-big" viewBox="0 0 512 512">
      <path d="m512 381l0 59-183 0 0-59 38 0 0-265-2 0-90 324-69 0-89-324-2 0 0 265 39 0 0 59-154 0 0-59 20 0c4 0 8-2 12-6 4-4 6-7 6-11l0-251c0-4-2-8-6-12-4-4-8-6-12-6l-20 0 0-60 192 0 63 235 2 0 64-235 191 0 0 60-20 0c-4 0-8 2-12 6-4 4-6 8-6 12l0 251c0 4 2 7 6 11 4 4 8 6 12 6z"/>
    </symbol>
  
    <symbol id="social-mobile" viewBox="0 0 512 512">
      <path d="m402 341c0-2 0-4 0-5-1-1-5-4-11-8-7-4-15-9-26-14l-15-9c-1 0-2-1-5-3-3-2-5-4-7-5-2-1-4-1-6-1-4 0-8 3-14 9-5 6-11 13-16 19-5 6-10 9-13 9-1 0-2 0-4-1-2 0-4-1-5-1-1-1-2-2-5-3-2-1-3-2-4-3-18-10-35-22-48-36-14-13-26-30-36-48-1-1-2-2-3-4-1-3-2-4-3-5 0-1-1-3-1-5-1-2-1-3-1-4 0-3 2-6 5-10 4-4 9-8 13-11 5-3 9-7 13-11 4-4 6-8 6-11 0-2 0-4-1-6-1-2-3-4-5-7-2-3-3-4-3-5-1-1-2-4-5-8-2-5-4-9-7-13-2-5-5-9-7-14-3-5-5-9-8-12-2-3-3-4-4-5-1 0-3 0-5 0-9 0-19 2-29 6-8 4-16 13-23 27-6 14-9 26-9 37 0 3 0 7 0 10 1 3 1 6 2 9 0 2 1 5 2 9 2 4 3 7 3 9 1 1 2 4 4 9 2 5 3 7 3 9 11 31 32 61 62 91 30 30 60 51 91 62 2 0 4 1 9 3 5 2 8 3 9 4 2 0 5 1 9 3 4 1 7 2 9 2 3 1 6 1 9 2 3 0 7 0 10 0 11 0 23-3 37-9 14-7 23-15 27-23 4-10 6-20 6-29z m73-222l0 274c0 23-8 42-24 58-16 16-35 24-58 24l-274 0c-23 0-42-8-58-24-16-16-24-35-24-58l0-274c0-23 8-42 24-58 16-16 35-24 58-24l274 0c23 0 42 8 58 24 16 16 24 35 24 58z"/>
    </symbol>
  
    <symbol id="social-email" viewBox="0 0 512 512">
      <path d="m512 203l0 227c0 12-4 23-13 32-9 9-20 13-33 13l-420 0c-13 0-24-4-33-13-9-9-13-20-13-32l0-227c8 9 18 17 29 25 69 47 116 79 142 98 11 8 20 15 26 19 7 4 16 9 27 14 12 4 22 7 32 7l0 0c10 0 20-3 32-7 11-5 20-10 27-14 6-4 15-11 26-19 33-23 80-56 142-98 11-8 21-16 29-25z m0-84c0 15-5 29-14 43-9 14-21 25-35 35-71 50-116 81-134 93-1 1-6 4-12 9-6 4-11 8-15 11-4 2-9 5-15 9-6 3-11 6-16 8-6 1-10 2-15 2l0 0c-5 0-9-1-15-2-5-2-10-5-16-8-6-4-11-7-15-9-4-3-9-7-15-11-6-5-11-8-12-9-18-12-43-30-75-52-33-23-52-36-59-41-12-8-23-19-33-33-11-14-16-27-16-39 0-15 4-27 12-37 8-10 19-15 34-15l420 0c13 0 23 5 32 14 9 9 14 19 14 32z"/>
    </symbol>
  
    <symbol id="external-link" viewBox="0 0 512 512">
      <path d="m402 265l0 92c0 22-8 42-24 58-16 16-35 24-58 24l-238 0c-22 0-42-8-58-24-16-16-24-36-24-58l0-238c0-23 8-42 24-58 16-16 36-24 58-24l201 0c3 0 5 0 7 2 2 2 3 4 3 7l0 18c0 3-1 5-3 7-2 1-4 2-7 2l-201 0c-12 0-23 5-32 14-9 9-13 19-13 32l0 238c0 12 4 23 13 32 9 9 20 13 32 13l238 0c13 0 23-4 32-13 9-9 14-20 14-32l0-92c0-3 1-5 2-6 2-2 4-3 7-3l18 0c3 0 5 1 7 3 1 1 2 3 2 6z m110-247l0 147c0 5-2 9-5 12-4 4-8 6-13 6-5 0-10-2-13-6l-50-50-187 186c-2 2-4 3-6 3-3 0-5-1-7-3l-32-32c-2-2-3-4-3-7 0-2 1-4 3-6l186-187-50-50c-4-3-6-8-6-13 0-5 2-9 6-13 3-3 7-5 12-5l147 0c5 0 9 2 13 5 3 4 5 8 5 13z"/>
    </symbol>
  
    <symbol id="projects-cog" viewBox="0 0 512 512">
      <path d="m453 222l-52-5c-4-12-9-25-15-36l33-41c4-4 4-11 0-15l-32-32c-3-2-5-3-8-3c-3 0-5 1-7 3l-41 33c-12-6-24-11-36-15l-5-52c-1-6-6-10-11-10l-46 0c-5 0-10 4-11 10l-5 52c-12 4-24 9-36 15l-41-33c-2-2-4-3-7-3c-3 0-5 1-8 3l-32 32c-4 4-4 11 0 15l33 41c-6 11-11 24-15 36l-52 5c-6 1-10 6-10 11l0 46c0 5 4 10 10 11l52 5c4 12 9 24 15 36l-33 41c-4 4-4 11 0 15l32 32c3 2 5 3 8 3c3 0 5-1 7-3l41-33c12 6 24 11 36 15l5 52c1 6 6 10 11 10l46 0c5 0 10-4 11-10l5-52c12-4 24-9 36-15l41 33c2 2 4 3 7 3c3 0 5-1 8-3l32-32c4-4 4-11 0-15l-33-41c6-12 11-24 15-36l52-5c6-1 10-6 10-11l0-46c0-5-4-10-10-11z m-197 95c-34 0-61-27-61-61c0-34 27-61 61-61c34 0 61 27 61 61c0 34-27 61-61 61z"/>
    </symbol>
  
    <symbol id="projects-tools" viewBox="0 0 512 512">
      <path d="m143 233c9 8 41 42 41 42l18-18-28-30 54-57c0 0-24-24-14-14 11-38 1-81-28-110-28-30-69-40-105-30l62 64-17 63-60 17-62-64c-10 38-1 79 28 109 30 31 73 40 111 28z m206 62l-74 73 123 128c10 10 23 15 36 15 13 0 27-5 37-15 20-21 20-55 0-76z m163-214l-78-81-231 239 28 29-138 143-32 16-44 73 11 12 70-46 17-33 138-143 28 30z"/>
    </symbol>
  
    <symbol id="interests-chef" viewBox="0 0 512 512">
      <path d="m384 512l-256 0c-6 0-10-4-11-10l-20-268c-43-5-76-41-76-85c0-47 40-87 86-87c10 0 19 2 28 6c15-41 62-68 121-68c56 0 95 23 119 69c9-4 20-7 30-7c46 0 86 40 86 87c0 44-33 80-76 85l-20 268c-1 6-5 10-11 10z m-246-21l236 0l21-268c0-5 5-10 10-10c36 0 64-28 64-64c0-38-34-65-64-65c-10 0-20 3-29 8c-3 2-6 3-9 2c-3-1-5-3-7-6c-20-46-53-67-104-67c-55 0-97 26-104 64c0 4-3 7-6 8c-3 2-7 1-10-1c-9-5-19-8-29-8c-30 0-64 27-64 65c0 36 28 64 64 64c5 0 10 5 10 10z m253-64l-270 0c-6 0-10-5-10-11c0-6 4-11 10-11l270 0c6 0 10 5 10 11c0 6-4 11-10 11z m-188 0c-6 0-11-5-11-11l0-85c0-6 5-11 11-11c6 0 10 5 10 11l0 85c0 6-4 11-10 11z m53 0c-6 0-11-5-11-11l0-107c0-6 5-10 11-10c6 0 11 4 11 10l0 107c0 6-5 11-11 11z m53 0c-6 0-10-5-10-11l0-85c0-6 4-11 10-11c6 0 11 5 11 11l0 85c0 6-5 11-11 11z"/>
    </symbol>
  
    <symbol id="interests-beer" viewBox="0 0 512 512">
      <path d="m448 128c-15 0-96 0-96 0l0-64c0-35-79-64-176-64-97 0-176 29-176 64l0 384c0 36 79 64 176 64 97 0 176-28 176-64l0-64c0 0 80 0 96 0 16 0 32-15 32-32 0-17 0-175 0-192 0-17-14-32-32-32z m-352 288l-32 0 0-256 32 0z m96 32l-32 0 0-256 32 0z m96-32l-32 0 0-256 32 0z m-112-320c-62 0-112-14-112-32 0-17 50-32 112-32 62 0 112 15 112 32 0 18-50 32-112 32z m240 224l-64 0 0-128 64 0z"/>
    </symbol>
  
    <symbol id="interests-gaming" viewBox="0 0 512 512">
      <path d="m219 311l0-37c0-2 0-5-2-6-2-2-4-3-7-3l-55 0 0-55c0-2 0-5-2-6-2-2-4-3-7-3l-36 0c-3 0-5 1-7 3-2 1-2 4-2 6l0 55-55 0c-3 0-5 1-7 3-2 1-2 4-2 6l0 37c0 3 0 5 2 6 2 2 4 3 7 3l55 0 0 55c0 3 0 5 2 6 2 2 4 3 7 3l36 0c3 0 5-1 7-3 2-1 2-3 2-6l0-55 55 0c3 0 5-1 7-3 2-1 2-3 2-6z m165 18c0-10-4-19-11-26-7-7-15-10-26-10-10 0-18 3-25 10-8 7-11 16-11 26 0 10 3 19 11 26 7 7 15 11 25 11 11 0 19-4 26-11 7-7 11-16 11-26z m73-73c0-10-3-19-11-26-7-7-15-11-25-11-11 0-19 4-26 11-7 7-11 16-11 26 0 10 4 19 11 26 7 7 15 11 26 11 10 0 18-4 25-11 8-7 11-16 11-26z m73 37c0 40-14 74-43 103-28 29-63 43-103 43-37 0-69-12-97-37l-62 0c-28 25-60 37-97 37-40 0-75-14-103-43-29-29-43-63-43-103 0-41 14-75 43-104 28-28 63-43 103-43l256 0c40 0 75 15 103 43 29 29 43 63 43 104z"/>
    </symbol>
  
    <symbol id="interests-film" viewBox="0 0 512 512">
      <path d="m91 457l0-36c0-5-1-10-5-13-4-4-8-6-13-6l-36 0c-5 0-10 2-13 6-4 3-6 8-6 13l0 36c0 5 2 9 6 13 3 4 8 5 13 5l36 0c5 0 9-1 13-5 4-4 5-8 5-13z m0-110l0-36c0-5-1-9-5-13-4-4-8-5-13-5l-36 0c-5 0-10 1-13 5-4 4-6 8-6 13l0 36c0 5 2 10 6 13 3 4 8 6 13 6l36 0c5 0 9-2 13-6 4-3 5-8 5-13z m0-109l0-37c0-5-1-9-5-13-4-3-8-5-13-5l-36 0c-5 0-10 2-13 5-4 4-6 8-6 13l0 37c0 5 2 9 6 13 3 3 8 5 13 5l36 0c5 0 9-2 13-5 4-4 5-8 5-13z m293 219l0-146c0-5-2-9-5-13-4-4-8-5-13-5l-220 0c-5 0-9 1-13 5-3 4-5 8-5 13l0 146c0 5 2 9 5 13 4 4 8 5 13 5l220 0c5 0 9-1 13-5 3-4 5-8 5-13z m-293-329l0-37c0-5-1-9-5-12-4-4-8-6-13-6l-36 0c-5 0-10 2-13 6-4 3-6 7-6 12l0 37c0 5 2 9 6 13 3 3 8 5 13 5l36 0c5 0 9-2 13-5 4-4 5-8 5-13z m403 329l0-36c0-5-2-10-6-13-3-4-8-6-13-6l-36 0c-5 0-9 2-13 6-4 3-5 8-5 13l0 36c0 5 1 9 5 13 4 4 8 5 13 5l36 0c5 0 10-1 13-5 4-4 6-8 6-13z m-110-219l0-147c0-5-2-9-5-12-4-4-8-6-13-6l-220 0c-5 0-9 2-13 6-3 3-5 7-5 12l0 147c0 5 2 9 5 13 4 3 8 5 13 5l220 0c5 0 9-2 13-5 3-4 5-8 5-13z m110 109l0-36c0-5-2-9-6-13-3-4-8-5-13-5l-36 0c-5 0-9 1-13 5-4 4-5 8-5 13l0 36c0 5 1 10 5 13 4 4 8 6 13 6l36 0c5 0 10-2 13-6 4-3 6-8 6-13z m0-109l0-37c0-5-2-9-6-13-3-3-8-5-13-5l-36 0c-5 0-9 2-13 5-4 4-5 8-5 13l0 37c0 5 1 9 5 13 4 3 8 5 13 5l36 0c5 0 10-2 13-5 4-4 6-8 6-13z m0-110l0-37c0-5-2-9-6-12-3-4-8-6-13-6l-36 0c-5 0-9 2-13 6-4 3-5 7-5 12l0 37c0 5 1 9 5 13 4 3 8 5 13 5l36 0c5 0 10-2 13-5 4-4 6-8 6-13z m36-46l0 384c0 13-4 24-13 33-9 9-20 13-32 13l-458 0c-12 0-23-4-32-13-9-9-13-20-13-33l0-384c0-12 4-23 13-32 9-9 20-13 32-13l458 0c12 0 23 4 32 13 9 9 13 20 13 32z"/>
    </symbol>
  
    <symbol id="interests-music" viewBox="0 0 512 512">
      <path d="m494 253c0 32-6 62-17 90l-6 14-53 9c-4 16-13 29-26 39-13 10-28 16-45 16l0 9c0 2 0 5-2 6-2 2-4 3-7 3l-18 0c-3 0-5-1-7-3-1-1-2-4-2-6l0-165c0-3 1-5 2-6 2-2 4-3 7-3l18 0c3 0 5 1 7 3 2 1 2 3 2 6l0 9c14 0 26 4 38 10 11 7 20 16 26 28l20-4c5-18 8-36 8-55 0-28-9-55-25-80-17-25-40-44-68-59-28-15-58-23-90-23-32 0-62 8-90 23-28 15-51 34-68 59-16 25-25 52-25 80 0 19 3 37 8 55l20 4c6-12 15-21 26-28 12-6 24-10 38-10l0-9c0-3 0-5 2-6 2-2 4-3 7-3l18 0c3 0 5 1 7 3 1 1 2 3 2 6l0 165c0 2-1 5-2 6-2 2-4 3-7 3l-18 0c-3 0-5-1-7-3-2-1-2-4-2-6l0-9c-17 0-32-6-45-16-13-10-22-23-26-39l-53-9-6-14c-11-28-17-58-17-90 0-29 7-56 19-83 13-27 30-50 52-69 21-20 46-35 76-47 29-12 59-17 91-17 32 0 62 5 91 17 30 12 55 27 76 47 22 19 39 42 52 69 12 27 19 54 19 83z"/>
    </symbol>
  
    <symbol id="interests-travel" viewBox="0 0 512 512">
      <path d="m448 46c8 10 10 24 3 42-6 18-16 35-30 49l-46 46 45 199c1 4 0 7-3 9l-37 28c-1 1-3 2-5 2-1 0-2-1-2-1-3 0-5-2-6-4l-80-145-74 74 15 55c1 3 0 6-2 9l-27 27c-2 2-4 3-7 3l-1 0c-2-1-5-2-6-4l-54-72-72-54c-3-1-4-3-4-6 0-3 1-5 2-8l28-27c2-2 4-3 6-3 2 0 2 0 3 0l55 16 74-74-145-80c-3-2-4-4-5-7 0-3 1-6 3-8l36-36c3-3 6-4 9-3l190 46 46-46c14-14 30-25 49-31 18-6 32-5 42 4z"/>
    </symbol>
  
    <symbol id="projects-presentation" viewBox="0 0 512 512">
      <path d="m451 85c0-6-4-10-9-10l-372 0c-5 0-9 4-9 10l0 32c0 5 4 9 9 9c0 0 0 0 0 0l372 0c5 0 9-4 9-9z m-31 67l-328 0c-5 0-9 4-9 9c0 0 0 0 0 0l0 0l0 190c0 12 9 21 21 21l139 0l0 27c-5 4-8 10-8 17c0 11 9 21 21 21c12 0 21-10 21-21c0-7-3-13-8-17l0-27l139 0c12 0 21-9 21-21l0-190l0 0c0-5-4-9-9-9z"/>
    </symbol>
  
</svg>
